<svg width="600" height="400" viewBox="0 0 600 400" fill="none" xmlns="http://www.w3.org/2000/svg">
<path d="M254.337 325.706C289.863 316.64 313.044 310.653 323.878 307.744C333.045 305.283 337.578 303.369 338.318 300.613C338.89 298.483 338.234 295.518 329.19 293.482C312.35 290.375 270.544 286.189 259.949 284.606C249.354 283.023 212.106 280.431 212.19 269.308C212.274 258.185 240.115 255.302 250.936 253.635C261.757 251.968 264.568 249.14 264.568 246.087C264.568 244.052 259.486 241.387 249.322 238.094" stroke="#DEE2E6" stroke-width="3" stroke-linecap="round" stroke-linejoin="round"/>
<path d="M271.182 237.5C283.177 239.214 290.383 240.868 292.801 242.462C296.429 244.853 297.694 250.123 291.596 252.603C287.53 254.256 282.586 255.881 276.764 257.479C272.206 259.396 269.928 261.466 269.928 263.688C269.928 267.02 272.839 268.87 280.791 270.125C288.743 271.38 348.595 276.543 353.193 276.757C357.791 276.971 432.887 282.905 460.608 290.472C488.329 298.038 500.05 306.301 501.592 312.705C502.619 316.975 501.384 320.483 497.887 323.231" stroke="#DEE2E6" stroke-width="3" stroke-linecap="round" stroke-linejoin="round"/>
<path d="M512.035 237.5H271.07" stroke="#DEE2E6" stroke-width="3" stroke-linecap="round"/>
<path d="M473 237L399.5 176L341.5 221" stroke="#DEE2E6" stroke-width="3" stroke-linecap="round" stroke-linejoin="round"/>
<path d="M358 206.943L341.5 192L286 236" stroke="#DEE2E6" stroke-width="3" stroke-linecap="round" stroke-linejoin="round"/>
<path fill-rule="evenodd" clip-rule="evenodd" d="M285.894 215.969L289.392 232.43L283.468 237.002L278.533 237.366L283.946 215.932C284.082 215.397 284.625 215.072 285.161 215.207C285.53 215.301 285.815 215.596 285.894 215.969Z" fill="#DEE2E6"/>
<path fill-rule="evenodd" clip-rule="evenodd" d="M178.5 251.515V135L161.5 130V297.672C161.488 299.601 160.874 301.503 160 303.378C159.126 305.253 156.907 307.627 154 309.5H186C183.188 307.694 181.652 305.597 180.5 304.21C179.348 302.822 178.717 300.945 178.5 298.578V268.367C178.725 268.22 178.438 268.047 178.636 267.849L199.849 246.636C201.411 245.074 201.411 242.541 199.849 240.979L197.021 238.151C195.459 236.589 192.926 236.589 191.364 238.151L178.5 251.515Z" fill="#DEE2E6"/>
<path fill-rule="evenodd" clip-rule="evenodd" d="M162.567 130.629L177.947 135.696V139.034L161.17 134.126L162.567 130.629Z" fill="white"/>
<path fill-rule="evenodd" clip-rule="evenodd" d="M178.5 251.515V135L161.5 130V297.672C161.488 299.601 160.874 301.503 160 303.378C159.126 305.253 156.907 307.627 154 309.5H186C183.188 307.694 181.652 305.597 180.5 304.21C179.348 302.822 178.717 300.945 178.5 298.578V268.367C178.725 268.22 178.438 268.047 178.636 267.849L199.849 246.636C201.411 245.074 201.411 242.541 199.849 240.979L197.021 238.151C195.459 236.589 192.926 236.589 191.364 238.151L178.5 251.515Z" stroke="#CED4DA" stroke-width="3" stroke-linecap="round" stroke-linejoin="round"/>
<path d="M138 309.5H210" stroke="#CED4DA" stroke-width="3" stroke-linecap="round"/>
<path d="M129 309.5H132" stroke="#CED4DA" stroke-width="3" stroke-linecap="round"/>
<path fill-rule="evenodd" clip-rule="evenodd" d="M186.982 298.454L189 309H183L185.018 298.454C185.122 297.911 185.645 297.556 186.188 297.659C186.59 297.736 186.905 298.051 186.982 298.454Z" fill="#CED4DA"/>
<path fill-rule="evenodd" clip-rule="evenodd" d="M190.969 301.091L193 309H187L189.031 301.091C189.169 300.556 189.714 300.234 190.249 300.371C190.602 300.462 190.878 300.738 190.969 301.091Z" fill="#CED4DA"/>
<path fill-rule="evenodd" clip-rule="evenodd" d="M151.969 301.091L154 309H148L150.031 301.091C150.169 300.556 150.714 300.234 151.249 300.371C151.602 300.462 151.878 300.738 151.969 301.091Z" fill="#CED4DA"/>
<path fill-rule="evenodd" clip-rule="evenodd" d="M95 147H243C245.209 147 247 148.791 247 151V239C247 241.209 245.209 243 243 243H95C92.7909 243 91 241.209 91 239V222.936L97 220.601L91 218.89V214.224L101 210.907L91 206.213V151C91 148.791 92.7909 147 95 147Z" fill="#DEE2E6"/>
<path fill-rule="evenodd" clip-rule="evenodd" d="M91.5 147.5H247.5V243.5H91.5V223.436L97.5 221.101L91.5 219.39V214.724L101.5 211.407L91.5 206.713V147.5Z" stroke="#CED4DA" stroke-width="3" stroke-linecap="round" stroke-linejoin="round"/>
<path d="M246 179.5H91" stroke="#CED4DA" stroke-width="3" stroke-linejoin="round"/>
<path d="M246 211.5H100" stroke="#CED4DA" stroke-width="3" stroke-linejoin="round"/>
<path d="M237 160C238.657 160 240 158.657 240 157C240 155.343 238.657 154 237 154C235.343 154 234 155.343 234 157C234 158.657 235.343 160 237 160Z" fill="#CED4DA"/>
<path d="M237 236C238.657 236 240 234.657 240 233C240 231.343 238.657 230 237 230C235.343 230 234 231.343 234 233C234 234.657 235.343 236 237 236Z" fill="#CED4DA"/>
<path d="M101 160C102.657 160 104 158.657 104 157C104 155.343 102.657 154 101 154C99.3431 154 98 155.343 98 157C98 158.657 99.3431 160 101 160Z" fill="#CED4DA"/>
<path d="M101 236C102.657 236 104 234.657 104 233C104 231.343 102.657 230 101 230C99.3431 230 98 231.343 98 233C98 234.657 99.3431 236 101 236Z" fill="#CED4DA"/>
<path fill-rule="evenodd" clip-rule="evenodd" d="M148.864 181.935C146.42 185.695 145 190.182 145 195C145 208.255 155.745 219 169 219C173.818 219 178.305 217.58 182.065 215.136L148.864 181.935ZM155.935 174.864L189.136 208.065C191.58 204.305 193 199.818 193 195C193 181.745 182.255 171 169 171C164.182 171 159.695 172.42 155.935 174.864ZM169 229C150.222 229 135 213.778 135 195C135 176.222 150.222 161 169 161C187.778 161 203 176.222 203 195C203 213.778 187.778 229 169 229Z" fill="white"/>
<path d="M246 149H93V152H246V149Z" fill="white"/>
<path fill-rule="evenodd" clip-rule="evenodd" d="M427.421 209.455L441.76 258.944C442.067 260.005 441.456 261.114 440.395 261.421C440.214 261.474 440.027 261.5 439.839 261.5H411.162C410.058 261.5 409.162 260.605 409.162 259.5C409.162 259.312 409.189 259.125 409.241 258.944L423.579 209.455C423.887 208.394 424.996 207.783 426.057 208.09C426.716 208.281 427.231 208.796 427.421 209.455Z" fill="white"/>
<path fill-rule="evenodd" clip-rule="evenodd" d="M425.5 207.824L442.5 261.5H408.5L425.5 207.824Z" stroke="#DEE2E6" stroke-width="3" stroke-linecap="round" stroke-linejoin="round"/>
<path fill-rule="evenodd" clip-rule="evenodd" d="M425.5 212.196C425.5 250.546 425.5 270.147 425.5 271C425.5 270.147 425.5 250.546 425.5 212.196Z" stroke="#DEE2E6" stroke-width="3" stroke-linecap="round" stroke-linejoin="round"/>
<path fill-rule="evenodd" clip-rule="evenodd" d="M433.5 236.824C428.167 243.285 425.5 246.619 425.5 246.824C425.5 246.619 428.167 243.285 433.5 236.824Z" stroke="#DEE2E6" stroke-width="3" stroke-linecap="round" stroke-linejoin="round"/>
<path fill-rule="evenodd" clip-rule="evenodd" d="M461.647 174.5L486.878 258.927C487.194 259.986 486.593 261.1 485.535 261.416C485.349 261.472 485.156 261.5 484.962 261.5H438.332C437.227 261.5 436.332 260.605 436.332 259.5C436.332 259.306 436.36 259.113 436.416 258.927L461.647 174.5Z" fill="white"/>
<path fill-rule="evenodd" clip-rule="evenodd" d="M461.5 174.5L487.5 261.5H435.5L461.5 174.5Z" stroke="#DEE2E6" stroke-width="3" stroke-linecap="round" stroke-linejoin="round"/>
<path fill-rule="evenodd" clip-rule="evenodd" d="M461.5 178.086C461.5 238.526 461.5 269.497 461.5 271C461.5 269.497 461.5 238.526 461.5 178.086Z" stroke="#DEE2E6" stroke-width="3" stroke-linecap="round" stroke-linejoin="round"/>
<path fill-rule="evenodd" clip-rule="evenodd" d="M451.648 211.5C457.648 215.912 460.648 218.245 460.648 218.5C460.648 218.245 457.648 215.912 451.648 211.5Z" stroke="#DEE2E6" stroke-width="3" stroke-linecap="round" stroke-linejoin="round"/>
<path fill-rule="evenodd" clip-rule="evenodd" d="M462.648 242.5C471.982 231.579 476.648 226.245 476.648 226.5C476.648 226.245 471.982 231.579 462.648 242.5Z" stroke="#DEE2E6" stroke-width="3" stroke-linecap="round" stroke-linejoin="round"/>
<path d="M216 93.4999H235C234.279 88.0723 236.082 83.5318 240.408 79.8783C245.375 75.8043 251.273 76.7177 254.441 78.1234C257.608 79.5292 259.961 81.4606 261.591 85.1051C262.282 86.6396 262.752 87.9379 263 88.9999" stroke="#DEE2E6" stroke-width="3" stroke-linecap="round"/>
<path d="M255 96.4999C256.056 92.8461 258.223 90.4572 261.501 89.3332C266.418 87.6471 271.08 89.8925 272.942 92.1518C274.805 94.4111 275.395 96.226 275.747 98.12C275.981 99.3827 276.065 100.843 276 102.5C280.142 102.331 282.919 103.165 284.332 105C286.04 107.194 286.215 109.818 285.593 111.75C284.971 113.682 282.895 116.5 279 116.5H200" stroke="#DEE2E6" stroke-width="3" stroke-linecap="round"/>
<path d="M190 103.5H255" stroke="#DEE2E6" stroke-width="3" stroke-linecap="round"/>
<path d="M172 103.5H180" stroke="#DEE2E6" stroke-width="3" stroke-linecap="round"/>
<path d="M360 138.5H379C378.279 133.072 380.082 128.532 384.408 124.878C389.375 120.804 395.273 121.718 398.441 123.123C401.608 124.529 403.961 126.461 405.591 130.105C406.282 131.64 406.752 132.938 407 134" stroke="#DEE2E6" stroke-width="3" stroke-linecap="round"/>
<path d="M399 141.5C400.056 137.846 402.223 135.457 405.501 134.333C410.418 132.647 415.08 134.892 416.942 137.152C418.805 139.411 419.395 141.226 419.747 143.12C419.981 144.383 420.065 145.843 420 147.5C424.142 147.331 426.919 148.165 428.332 150C430.04 152.194 430.215 154.818 429.593 156.75C428.971 158.682 426.895 161.5 423 161.5H344" stroke="#DEE2E6" stroke-width="3" stroke-linecap="round"/>
<path d="M334 148.5H399" stroke="#DEE2E6" stroke-width="3" stroke-linecap="round"/>
<path d="M316 148.5H324" stroke="#DEE2E6" stroke-width="3" stroke-linecap="round"/>
</svg>
