<svg width="20" height="20" viewBox="0 0 20 20" fill="none" xmlns="http://www.w3.org/2000/svg">
<path d="M19.1667 10.816H0.833333C0.373332 10.816 0 10.4427 0 9.9827C0 9.5227 0.373332 9.14937 0.833333 9.14937H19.1667C19.6267 9.14937 20 9.5227 20 9.9827C20 10.4427 19.6267 10.816 19.1667 10.816Z" fill="black"/>
<path d="M19.1667 4.42708H0.833333C0.373332 4.42708 0 4.05375 0 3.59375C0 3.13375 0.373332 2.76042 0.833333 2.76042H19.1667C19.6267 2.76042 20 3.13375 20 3.59375C20 4.05375 19.6267 4.42708 19.1667 4.42708Z" fill="black"/>
<path d="M19.1667 17.2048H0.833333C0.373332 17.2048 0 16.8315 0 16.3715C0 15.9115 0.373332 15.5381 0.833333 15.5381H19.1667C19.6267 15.5381 20 15.9115 20 16.3715C20 16.8315 19.6267 17.2048 19.1667 17.2048Z" fill="black"/>
</svg>
