<svg width="35" height="61" viewBox="0 0 35 61" fill="none" xmlns="http://www.w3.org/2000/svg">
<path d="M30.8023 0.5H4.05257C1.824 0.5 0 2.32229 0 4.55257V56.4457C0 58.676 1.824 60.5 4.05257 60.5H30.8023C33.0309 60.5 34.8549 58.6794 34.8549 56.4474V4.55257C34.8549 2.32229 33.0309 0.5 30.8023 0.5ZM13.1486 3.42114H21.7063C21.9771 3.42114 22.1966 3.64057 22.1966 3.91314C22.1966 4.184 21.9771 4.40343 21.7063 4.40343H13.1486C12.8777 4.40343 12.6583 4.184 12.6583 3.91314C12.6583 3.64057 12.8777 3.42114 13.1486 3.42114ZM17.4274 58.4737C16.308 58.4737 15.4011 57.5669 15.4011 56.4457C15.4011 55.3246 16.308 54.4194 17.4274 54.4194C18.5469 54.4194 19.4537 55.3246 19.4537 56.4457C19.4537 57.5669 18.5469 58.4737 17.4274 58.4737ZM32.0349 53H2.82V6.92686H32.0349V53Z" fill="#868E96"/>
</svg>
