<svg width="80" height="80" viewBox="0 0 80 80" fill="none" xmlns="http://www.w3.org/2000/svg">
<path d="M40 79.2727C61.878 79.2727 80 61.3539 80 39.6364C80 17.9572 61.878 0 39.9613 0C18.0833 0 0 17.9572 0 39.6364C0 61.3539 18.122 79.2727 40 79.2727ZM40 71.4836C22.1878 71.4836 7.89932 57.2866 7.89932 39.6364C7.89932 21.9861 22.1491 7.82751 39.9613 7.82751C57.7735 7.82751 72.1007 21.9861 72.1394 39.6364C72.1394 57.2866 57.8122 71.4836 40 71.4836ZM28.5382 36.183C30.9777 36.183 33.1462 33.996 33.1462 30.9647C33.1462 27.9335 31.0165 25.7464 28.5382 25.7464C26.1375 25.7464 24.0465 27.9335 24.0465 30.9647C24.0465 33.996 26.1375 36.183 28.5382 36.183ZM51.3843 36.183C53.8238 36.183 55.9923 33.996 55.9923 30.9647C55.9923 27.9335 53.8238 25.7464 51.3843 25.7464C48.9448 25.7464 46.8925 27.9335 46.8925 30.9647C46.8925 33.996 48.9835 36.183 51.3843 36.183ZM39.9613 49.4932C48.0929 49.4932 53.5528 54.8267 53.5528 57.3975C53.5528 58.3184 52.6234 58.7405 51.7328 58.3568C48.9061 56.8987 45.6147 55.172 39.9613 55.172C34.3466 55.172 31.0165 56.8987 28.1897 58.3568C27.3379 58.7788 26.4085 58.3184 26.4085 57.3975C26.4085 54.8267 31.8683 49.4932 39.9613 49.4932Z" fill="#F03E3E"/>
</svg>
