<svg width="24" height="24" viewBox="0 0 24 24" fill="none" xmlns="http://www.w3.org/2000/svg">
<path d="M12 24C18.5647 24 24 18.5529 24 12C24 5.43529 18.5529 0 11.9882 0C5.43529 0 0 5.43529 0 12C0 18.5529 5.44706 24 12 24ZM4.96471 4.37647C6.14118 3.28235 7.57647 2.45882 9.15294 2C8.34118 2.82353 7.64706 3.98824 7.12941 5.42353C6.29412 5.15294 5.56471 4.8 4.96471 4.37647ZM14.8588 2.01176C16.4235 2.47059 17.8471 3.29412 19.0353 4.38824C18.4353 4.81176 17.7059 5.15294 16.8706 5.42353C16.3529 4 15.6588 2.83529 14.8588 2.01176ZM8.64706 5.81176C9.30588 4.01176 10.2235 2.71765 11.2353 2.27059V6.08235C10.3059 6.04706 9.44706 5.95294 8.64706 5.81176ZM12.7765 2.27059C13.7765 2.71765 14.6941 4.01176 15.3529 5.81176C14.5529 5.95294 13.6941 6.04706 12.7765 6.08235V2.27059ZM1.62353 11.2235C1.78824 9.08235 2.62353 7.09412 3.91765 5.49412C4.64706 6.04706 5.58824 6.50588 6.68235 6.85882C6.34118 8.17647 6.12941 9.64706 6.07059 11.2235H1.62353ZM17.9294 11.2235C17.8706 9.64706 17.6588 8.17647 17.3176 6.85882C18.4118 6.50588 19.3529 6.04706 20.0706 5.50588C21.3765 7.09412 22.2118 9.08235 22.3765 11.2235H17.9294ZM12.7765 11.2235V7.62353C13.8353 7.58824 14.8471 7.45882 15.8 7.25882C16.1059 8.47059 16.2941 9.81176 16.3529 11.2235H12.7765ZM7.64706 11.2235C7.70588 9.81176 7.90588 8.47059 8.2 7.25882C9.15294 7.45882 10.1647 7.58824 11.2353 7.62353V11.2235H7.64706ZM1.62353 12.7647H6.07059C6.12941 14.3765 6.34118 15.8588 6.68235 17.1882C5.6 17.5412 4.67059 18 3.95294 18.5412C2.63529 16.9294 1.78824 14.9294 1.62353 12.7647ZM7.64706 12.7647H11.2353V16.4353C10.1765 16.4706 9.16471 16.6 8.22353 16.7882C7.90588 15.5647 7.69412 14.2 7.64706 12.7647ZM12.7765 16.4353V12.7647H16.3529C16.3059 14.2 16.0941 15.5647 15.7765 16.7882C14.8471 16.6 13.8235 16.4706 12.7765 16.4353ZM17.3176 17.1882C17.6588 15.8588 17.8706 14.3765 17.9294 12.7647H22.3765C22.2118 14.9294 21.3647 16.9294 20.0471 18.5412C19.3294 18 18.4 17.5412 17.3176 17.1882ZM12.7765 17.9765C13.6824 18.0118 14.5412 18.0941 15.3294 18.2471C14.6706 20 13.7647 21.2941 12.7765 21.7412V17.9765ZM8.67059 18.2471C9.45882 18.0941 10.3176 18.0118 11.2353 17.9765V21.7412C10.2353 21.2941 9.32941 20 8.67059 18.2471ZM16.8588 18.6235C17.6824 18.8941 18.4 19.2353 19 19.6471C17.8235 20.7176 16.4235 21.5294 14.8706 21.9882C15.6588 21.1765 16.3412 20.0235 16.8588 18.6235ZM5 19.6471C5.6 19.2353 6.31765 18.8941 7.14118 18.6235C7.65882 20.0235 8.34118 21.1765 9.14118 21.9882C7.58824 21.5294 6.17647 20.7176 5 19.6471Z" fill="#3A3F47"/>
</svg>
