<svg width="518" height="414" viewBox="0 0 518 414" fill="none" xmlns="http://www.w3.org/2000/svg">
<path d="M252.095 0H67.9048C52.5595 0 40 12.5477 40 27.9048V385.225C40 400.582 52.5595 413.142 67.9048 413.142H252.095C267.44 413.142 280 400.606 280 385.237V27.9048C280 12.5477 267.44 0 252.095 0ZM130.537 20.1141H189.463C191.328 20.1141 192.839 21.625 192.839 23.5019C192.839 25.3669 191.328 26.8778 189.463 26.8778H130.537C128.672 26.8778 127.161 25.3669 127.161 23.5019C127.161 21.625 128.672 20.1141 130.537 20.1141ZM160 399.19C152.292 399.19 146.048 392.945 146.048 385.225C146.048 377.505 152.292 371.273 160 371.273C167.708 371.273 173.952 377.505 173.952 385.225C173.952 392.945 167.708 399.19 160 399.19ZM260.582 361.499H59.4177V44.2534H260.582V361.499Z" fill="#CED4DA"/>
<path fill-rule="evenodd" clip-rule="evenodd" d="M263.703 236.519C262.847 236.519 262.024 236.665 261.256 236.934C259.799 234.673 257.297 233.182 254.455 233.182C251.737 233.182 249.33 234.546 247.851 236.643C247.259 236.291 246.571 236.09 245.838 236.09C245.196 236.09 244.59 236.244 244.051 236.518C242.598 232.721 238.989 230.031 234.767 230.031C230.89 230.031 227.531 232.299 225.882 235.609C224.907 235.14 223.818 234.878 222.67 234.878C219.429 234.878 216.663 236.968 215.587 239.905C215.435 240.317 241.438 240.08 249.716 240.08C250.778 240.08 252.023 241.189 252.976 241.189C256.903 241.189 262.793 241.189 270.646 241.189C269.483 238.441 266.812 236.519 263.703 236.519Z" fill="#F1F3F5"/>
<path d="M87.1973 249.818H285.764" stroke="#DEE2E6" stroke-width="3" stroke-linecap="round"/>
<path d="M101.01 233.815H135.946C140.274 234.062 144.066 235.88 147.322 239.27C149.797 241.848 155.369 247.948 157.614 249.187" stroke="#DEE2E6" stroke-width="3" stroke-linecap="round" stroke-linejoin="round"/>
<path d="M124.85 231.764L153.978 200.08L180.109 227.561" stroke="#F1F3F5" stroke-width="3" stroke-linecap="round" stroke-linejoin="round"/>
<path d="M171.828 218.401L180.109 210.037L207.161 239.51" stroke="#F1F3F5" stroke-width="3" stroke-linecap="round" stroke-linejoin="round"/>
<path fill-rule="evenodd" clip-rule="evenodd" d="M211.947 226.895L215.832 239.87H208.062L211.947 226.895Z" fill="#DEE2E6" stroke="#DEE2E6" stroke-linecap="round" stroke-linejoin="round"/>
<path fill-rule="evenodd" clip-rule="evenodd" d="M217.561 232.95L219.287 239.87H215.834L217.561 232.95Z" fill="#DEE2E6" stroke="#DEE2E6" stroke-linecap="round" stroke-linejoin="round"/>
<path fill-rule="evenodd" clip-rule="evenodd" d="M123.889 220.84L127.774 233.815H120.004L123.889 220.84Z" fill="#DEE2E6" stroke="#DEE2E6" stroke-linecap="round" stroke-linejoin="round"/>
<path fill-rule="evenodd" clip-rule="evenodd" d="M132.953 226.895L134.68 233.815H131.227L132.953 226.895Z" fill="#DEE2E6" stroke="#DEE2E6" stroke-linecap="round" stroke-linejoin="round"/>
<path d="M110.506 240.735H124.722C129.05 240.982 132.842 242.8 136.098 246.19C137.404 247.551 138.568 248.719 139.707 249.701" stroke="#DEE2E6" stroke-width="3" stroke-linecap="round" stroke-linejoin="round"/>
<path d="M290.943 249.818H301.303" stroke="#DEE2E6" stroke-width="3" stroke-linecap="round"/>
<path d="M273.687 249.081C271.697 246.486 269.873 244.761 268.215 243.904C265.368 242.432 262.723 241.039 256.718 241.039C252.714 241.039 217.259 241.039 150.352 241.039" stroke="#DEE2E6" stroke-width="3" stroke-linecap="round" stroke-linejoin="round"/>
<path d="M281.158 249.472C278.446 245.972 276.246 243.804 274.558 242.969C272.025 241.717 270.494 241.039 264.488 241.039C263.143 241.039 258.897 241.039 251.75 241.039" stroke="#DEE2E6" stroke-width="3" stroke-linecap="round" stroke-linejoin="round"/>
<path d="M318.57 174.13L324.613 168.075" stroke="#CED4DA" stroke-width="3" stroke-linecap="round" stroke-linejoin="round"/>
<path d="M311.662 170.67V164.615" stroke="#CED4DA" stroke-width="3" stroke-linecap="round" stroke-linejoin="round"/>
<path d="M322.886 181.05H328.93" stroke="#CED4DA" stroke-width="3" stroke-linecap="round" stroke-linejoin="round"/>
<path d="M186.691 236.563C185.91 234.175 184.942 230.664 185.559 229.556C185.834 229.061 186.145 228.822 186.32 228.364C186.777 228.071 187.128 226.884 187.486 226.071C187.677 225.638 187.887 224.99 187.908 224.97C188.258 224.05 188.185 223.33 187.142 223.164C186.858 222.874 186.565 222.679 186.432 222.55C186.378 222.499 186.306 222.456 186.228 222.417C186.15 222.225 186.071 222.034 185.983 221.848C186.363 221.333 186.713 220.576 186.15 219.975C185.564 219.35 184.962 219.896 184.738 220.15C183.641 219.365 181.88 219.165 180.318 219.812C180.174 219.553 179.782 218.713 178.984 219.145C178.204 219.567 178.528 220.833 178.606 221.103C177.613 222.229 176.977 223.691 176.71 224.47C176.314 225.629 174.943 230.181 173.662 231.965C173.319 232.442 188.472 239.994 186.691 236.563Z" fill="#DEE2E6"/>
<path fill-rule="evenodd" clip-rule="evenodd" d="M174.757 230.191C173.292 232.258 172.842 235.863 173.409 241.007C174.259 248.723 176.918 253.91 177.158 255.598C177.397 257.285 178.084 258.699 176.689 261.525C175.759 263.408 175.115 265.362 174.757 267.385H183.402C184.07 265.514 184.87 264.222 185.803 263.508C187.203 262.437 190.359 261.242 191.355 261.196C192.35 261.15 193.714 261.882 194.051 263.508C194.276 264.592 194.388 265.498 194.388 266.226L202.185 268.086C202.351 264.864 202.144 262.363 201.564 260.583C200.695 257.912 198.998 254.652 197.36 252.361C195.721 250.071 190.13 244.905 189.415 243.561C188.699 242.217 187.686 237.696 187.023 236.362C186.581 235.473 184.571 233.055 180.993 229.107L174.757 230.191Z" fill="#DEE2E6"/>
<path fill-rule="evenodd" clip-rule="evenodd" d="M187.341 239.445C189.209 240.231 190.492 240.618 191.191 240.604C192.239 240.583 194.133 238.891 195.017 238.026C195.901 237.161 197.903 234.837 198.505 236.379C199.107 237.92 198.831 239.189 198.505 240.11C198.125 241.196 197.254 242.45 196.711 243.299C196.168 244.147 194.328 246.454 192.953 246.482C192.037 246.501 189.442 246.501 185.168 246.482L187.341 239.445Z" fill="#DEE2E6"/>
<path d="M151.948 272.307H142.451V275.768H151.948V272.307Z" fill="#DEE2E6" stroke="#CED4DA" stroke-width="3" stroke-linecap="round" stroke-linejoin="round"/>
<path d="M131.227 261.927H139.565C140.753 261.927 141.789 262.738 142.077 263.893L144.236 272.543C144.583 273.933 143.739 275.342 142.351 275.69C142.146 275.741 141.935 275.767 141.723 275.767H126.91C125.48 275.767 124.32 274.606 124.32 273.172V268.847C124.32 265.026 127.413 261.927 131.227 261.927Z" fill="#DEE2E6"/>
<g filter="url(#filter0_i_4148_9902)">
<path d="M131.227 261.927H139.565C140.753 261.927 141.789 262.738 142.077 263.893L144.236 272.543C144.583 273.933 143.739 275.342 142.351 275.69C142.146 275.741 141.935 275.767 141.723 275.767H126.91C125.48 275.767 124.32 274.606 124.32 273.172V268.847C124.32 265.026 127.413 261.927 131.227 261.927Z" fill="#DEE2E6"/>
</g>
<path d="M131.227 261.927H139.565C140.753 261.927 141.789 262.738 142.077 263.893L144.236 272.543C144.583 273.933 143.739 275.342 142.351 275.69C142.146 275.741 141.935 275.767 141.723 275.767H126.91C125.48 275.767 124.32 274.606 124.32 273.172V268.847C124.32 265.026 127.413 261.927 131.227 261.927Z" stroke="#CED4DA" stroke-width="3" stroke-linecap="round" stroke-linejoin="round"/>
<path d="M149.357 267.982L232.298 266.685C242.602 266.443 252.222 265.434 261.159 263.657C254.648 272.164 249.773 277.82 246.535 280.625C243.297 283.43 239.97 284.694 236.554 284.417H157.068C155.562 284.417 154.229 283.439 153.775 281.999L149.357 267.982Z" fill="#DEE2E6"/>
<g filter="url(#filter1_i_4148_9902)">
<path d="M149.357 267.982L232.298 266.685C242.602 266.443 252.222 265.434 261.159 263.657C254.648 272.164 249.773 277.82 246.535 280.625C243.297 283.43 239.97 284.694 236.554 284.417H157.068C155.562 284.417 154.229 283.439 153.775 281.999L149.357 267.982Z" fill="#DEE2E6"/>
</g>
<path d="M149.357 267.982L232.298 266.685C242.602 266.443 252.222 265.434 261.159 263.657C254.648 272.164 249.773 277.82 246.535 280.625C243.297 283.43 239.97 284.694 236.554 284.417H157.068C155.562 284.417 154.229 283.439 153.775 281.999L149.357 267.982Z" stroke="#CED4DA" stroke-width="3" stroke-linecap="round" stroke-linejoin="round"/>
<path d="M146.9 267.974C204.571 267.259 235.067 266.755 238.388 266.462C243.37 266.022 255.924 265.11 263.956 263.087" stroke="#CED4DA" stroke-width="3" stroke-linecap="round" stroke-linejoin="round"/>
<path d="M121.299 267.982H142.882" stroke="#CED4DA" stroke-width="3" stroke-linecap="round" stroke-linejoin="round"/>
<path d="M140.725 275.931L143.196 283.969" stroke="#CED4DA" stroke-width="3" stroke-linecap="round" stroke-linejoin="round"/>
<path d="M136.406 275.931L138.878 283.969" stroke="#CED4DA" stroke-width="3" stroke-linecap="round" stroke-linejoin="round"/>
<path d="M233.963 169.197C233.963 169.197 249.013 150.829 256.302 144.666C263.592 138.503 287.241 124.77 279.906 147.939C272.571 171.107 272.419 168.878 271.647 173.901C270.875 178.925 267.851 194.091 283.621 186.262C293.555 180.783 297.957 170.903 307.651 179.668" stroke="#DEE2E6" stroke-width="3" stroke-linecap="round" stroke-linejoin="round"/>
<path d="M313.391 185.537C315.008 187.767 316.033 189.996 316.464 192.222C317.11 195.562 320 200.295 326.086 198.086C332.172 195.877 335.016 194.626 343.999 188.948C354.951 181.812 365.917 179.024 363.674 199.335C362.313 212.837 353.359 223.319 353.359 231.166C353.359 239.014 357.446 240.733 359.028 242.712C360.712 244.38 363.657 246.051 367.864 247.727" stroke="#DEE2E6" stroke-width="3" stroke-linecap="round" stroke-linejoin="round"/>
<path d="M206.026 212.69C206.62 218.619 206.123 223.612 204.534 227.67C202.945 231.727 199.888 235.167 195.361 237.988" stroke="#DEE2E6" stroke-width="3" stroke-linecap="round" stroke-linejoin="round"/>
<path d="M220.772 187.455C219.097 192.495 217.225 196.882 215.154 200.616C213.083 204.349 209.975 208.125 205.83 211.943" stroke="#DEE2E6" stroke-width="3" stroke-linecap="round" stroke-linejoin="round"/>
<path d="M234.317 169.073C231.942 173.108 230.01 176.276 228.521 178.577C227.032 180.879 224.831 183.296 221.918 185.83" stroke="#DEE2E6" stroke-width="3" stroke-linecap="round" stroke-linejoin="round"/>
<path d="M232.969 168.075C221.642 179.528 212.83 191.483 206.533 203.938C202.067 212.4 195.959 228.721 188.207 252.902" stroke="#CED4DA" stroke-width="3" stroke-linecap="round" stroke-linejoin="round"/>
<path d="M198.135 243.33C200.281 243.33 202.02 241.587 202.02 239.438C202.02 237.288 200.281 235.545 198.135 235.545C195.989 235.545 194.25 237.288 194.25 239.438C194.25 241.587 195.989 243.33 198.135 243.33Z" fill="#F1F3F5" stroke="#CED4DA" stroke-width="3" stroke-linecap="round" stroke-linejoin="round"/>
<path fill-rule="evenodd" clip-rule="evenodd" d="M181.352 230.455C185.116 230.992 187.742 230.992 189.231 230.455C191.465 229.649 195.058 225.706 196.112 224.675C197.165 223.644 199.964 220.549 200.681 222.386C201.399 224.223 201.523 226.252 200.681 227.54C199.911 229.112 195.845 233.145 195.197 234.156C194.55 235.167 192.778 237.245 190.65 237.841C189.232 238.238 185.828 238.447 180.438 238.47L181.352 230.455Z" fill="#DEE2E6"/>
<path d="M219.766 186.145L222.976 188.548" stroke="#CED4DA" stroke-width="3" stroke-linecap="round" stroke-linejoin="round"/>
<path d="M233.605 168.106L235.154 169.432" stroke="#CED4DA" stroke-width="3" stroke-linecap="round" stroke-linejoin="round"/>
<path d="M204.227 211.23L207.813 212.712" stroke="#CED4DA" stroke-width="3" stroke-linecap="round" stroke-linejoin="round"/>
<path d="M370.662 251.709L366.57 243.558C373.24 237.659 379.876 236.228 386.48 239.263C396.386 243.817 400.063 254.476 398.223 260.437C396.382 266.398 393.147 270.52 387.703 273.406C391.067 269.673 391.99 266.298 390.472 263.281C389.411 261.243 388.045 259.834 386.374 259.053L364.672 248.909" stroke="#CED4DA" stroke-width="3" stroke-linecap="round" stroke-linejoin="round"/>
<path d="M384.223 243.04C386.335 245.11 386.688 247.654 385.283 250.674C383.878 253.694 381.127 255.001 377.03 254.596" stroke="#CED4DA" stroke-width="3" stroke-linecap="round" stroke-linejoin="round"/>
<path d="M374.933 247.621C376.014 248.126 377.298 247.658 377.801 246.576C378.305 245.494 377.836 244.208 376.756 243.702C375.675 243.197 374.391 243.665 373.887 244.747C373.384 245.829 373.852 247.115 374.933 247.621Z" fill="#CED4DA"/>
<path d="M390.274 250.401C392.72 252.135 393.731 254.411 393.308 257.23L388.136 254.812" stroke="#CED4DA" stroke-width="3" stroke-linecap="round" stroke-linejoin="round"/>
<path d="M385.535 258.898C383.806 261.346 381.535 262.357 378.72 261.93L381.129 256.752" stroke="#CED4DA" stroke-width="3" stroke-linecap="round" stroke-linejoin="round"/>
<path fill-rule="evenodd" clip-rule="evenodd" d="M392.777 269.753C389.23 271.405 386.078 271.711 383.321 270.672C380.564 269.633 378.664 267.868 377.62 265.376L374.207 272.712C378.92 274.605 382.686 275.133 385.508 274.296C388.329 273.459 390.752 271.945 392.777 269.753Z" stroke="#CED4DA" stroke-width="3" stroke-linecap="round" stroke-linejoin="round"/>
<path d="M387.85 239.736L390.736 233.532C398.47 240.528 401.099 248.912 398.623 258.685" stroke="#CED4DA" stroke-width="3" stroke-linecap="round" stroke-linejoin="round"/>
<path fill-rule="evenodd" clip-rule="evenodd" d="M138.516 284.206L145.486 281.64L147.565 279.141L154.26 284.206H158.778L164.153 280.485L166.158 279.141L168.742 281.673L173.808 284.206L178.427 283.114L183.671 279.141L187.721 281.673L192.755 284.206L198.096 283.114L202.271 279.141L205.318 281.673L209.878 283.114H214.14L217.985 281.64L220.193 279.141L223.291 283.114L228.036 284.382C231.145 283.967 232.655 283.967 232.564 284.382C232.504 284.66 240.159 278.749 238.583 279.727C238.239 279.941 241.35 280.893 243.873 283.114C244.7 283.843 245.614 285.266 246.615 287.386L137.268 289.623L138.516 284.206Z" fill="white"/>
<path d="M175.69 283.745C169.437 285.048 165.555 278.795 165.555 278.795H165.547C165.547 278.795 162.587 283.938 156.505 283.938C150.679 283.938 147.481 278.795 147.481 278.795H147.471C147.471 278.795 144.515 283.938 138.434 283.938C132.604 283.938 129.409 278.795 129.409 278.795H129.399C129.399 278.795 124.396 285.151 118.277 283.848" stroke="#DEE2E6" stroke-width="3" stroke-linecap="round" stroke-linejoin="round"/>
<path d="M228.887 284.417C223.025 284.858 219.946 278.795 219.946 278.795H219.938C219.938 278.795 216.977 283.938 210.896 283.938C205.069 283.938 201.871 278.795 201.871 278.795H201.861C201.861 278.795 198.906 283.938 192.824 283.938C186.995 283.938 183.8 278.795 183.8 278.795H183.79C183.79 278.795 178.787 285.151 172.668 283.848" stroke="#DEE2E6" stroke-width="3" stroke-linecap="round" stroke-linejoin="round"/>
<path d="M229.647 284.417C235.509 284.858 238.588 278.795 238.588 278.795H238.595C238.595 278.795 241.556 283.938 247.637 283.938C253.464 283.938 256.662 278.795 256.662 278.795H256.672C256.672 278.795 259.628 283.938 265.709 283.938C271.538 283.938 274.734 278.795 274.734 278.795H274.744C274.744 278.795 279.746 285.151 285.865 283.848" stroke="#DEE2E6" stroke-width="3" stroke-linecap="round" stroke-linejoin="round"/>
<path d="M342.314 283.745C336.06 285.048 332.178 278.795 332.178 278.795H332.17C332.17 278.795 329.21 283.938 323.128 283.938C317.302 283.938 314.104 278.795 314.104 278.795H314.094C314.094 278.795 311.138 283.938 305.057 283.938C299.227 283.938 296.032 278.795 296.032 278.795H296.022C296.022 278.795 291.019 285.151 284.9 283.848" stroke="#DEE2E6" stroke-width="3" stroke-linecap="round" stroke-linejoin="round"/>
<path d="M322.458 300.18C316.204 301.483 312.322 295.23 312.322 295.23H312.315C312.315 295.23 309.354 300.373 303.273 300.373C297.446 300.373 294.248 295.23 294.248 295.23H294.238C294.238 295.23 291.283 300.373 285.201 300.373C279.372 300.373 276.177 295.23 276.177 295.23H276.167C276.167 295.23 271.164 301.586 265.045 300.283" stroke="#DEE2E6" stroke-width="3" stroke-linecap="round" stroke-linejoin="round"/>
<path d="M457.138 283.745C450.884 285.048 447.002 278.795 447.002 278.795H446.995C446.995 278.795 444.034 283.938 437.953 283.938C432.126 283.938 428.928 278.795 428.928 278.795H428.918C428.918 278.795 425.962 283.938 419.881 283.938C414.052 283.938 410.856 278.795 410.856 278.795H410.846C410.846 278.795 405.843 285.151 399.725 283.848" stroke="#DEE2E6" stroke-width="3" stroke-linecap="round" stroke-linejoin="round"/>
<path d="M367.349 300.272C363.164 301.144 360.567 296.96 360.567 296.96H360.562C360.562 296.96 358.58 300.401 354.511 300.401C350.612 300.401 348.473 296.96 348.473 296.96H348.466C348.466 296.96 346.488 300.401 342.419 300.401C338.518 300.401 336.38 296.96 336.38 296.96H336.373C336.373 296.96 333.026 301.213 328.932 300.341" stroke="#DEE2E6" stroke-width="3" stroke-linecap="round" stroke-linejoin="round"/>
<path fill-rule="evenodd" clip-rule="evenodd" d="M124.32 198.873C124.32 211.611 139.529 221.205 152.848 215.263L161.594 219.436L159.841 210.756C163.676 207.675 165.76 203.618 165.76 198.873C165.76 189.502 156.485 181.05 145.04 181.05C133.596 181.05 124.32 189.502 124.32 198.873Z" fill="white" stroke="#CED4DA" stroke-width="3" stroke-linejoin="round"/>
<path fill-rule="evenodd" clip-rule="evenodd" d="M140.475 189.212L146.487 188.578L146.98 201.571L142.685 202.024L140.475 189.212Z" fill="#CED4DA"/>
<path d="M145.736 210.4C147.396 210.225 148.6 208.735 148.426 207.073C148.252 205.41 146.765 204.204 145.105 204.38C143.445 204.555 142.241 206.044 142.415 207.707C142.589 209.369 144.076 210.575 145.736 210.4Z" fill="#CED4DA"/>
<path fill-rule="evenodd" clip-rule="evenodd" d="M236.877 236.843H250.906C251.338 236.843 251.704 237.163 251.761 237.593L253.258 248.838C253.321 249.312 252.989 249.747 252.516 249.81C252.478 249.815 252.44 249.818 252.402 249.818H235.381C234.904 249.818 234.518 249.43 234.518 248.953C234.518 248.914 234.52 248.876 234.525 248.838L236.022 237.593C236.079 237.163 236.445 236.843 236.877 236.843Z" fill="white" stroke="#DEE2E6" stroke-width="3" stroke-linecap="round" stroke-linejoin="round"/>
<path d="M248.639 213.92H239.143V219.11H248.639V213.92Z" fill="#F1F3F5"/>
<path d="M248.639 222.57H239.143V227.76H248.639V222.57Z" fill="#F1F3F5"/>
<path d="M248.639 231.22H239.143V236.41H248.639V231.22Z" fill="#F1F3F5"/>
<path d="M248.208 209.163H239.574C239.097 209.163 238.711 209.55 238.711 210.028V235.978C238.711 236.455 239.097 236.843 239.574 236.843H248.208C248.684 236.843 249.071 236.455 249.071 235.978V210.028C249.071 209.55 248.684 209.163 248.208 209.163Z" stroke="#DEE2E6" stroke-width="3" stroke-linecap="round" stroke-linejoin="round"/>
<path fill-rule="evenodd" clip-rule="evenodd" d="M239.024 200.253L243.932 196.188L248.763 200.253C248.958 200.418 249.071 200.66 249.071 200.916V208.298C249.071 208.775 248.684 209.163 248.208 209.163H239.574C239.097 209.163 238.711 208.775 238.711 208.298V200.92C238.711 200.662 238.826 200.417 239.024 200.253Z" stroke="#DEE2E6" stroke-width="3" stroke-linecap="round" stroke-linejoin="round"/>
<path d="M234.715 209.163H252.845" stroke="#DEE2E6" stroke-width="3" stroke-linecap="round" stroke-linejoin="round"/>
<path d="M243.891 196.014V187.581" stroke="#DEE2E6" stroke-width="3" stroke-linecap="round" stroke-linejoin="round"/>
<defs>
<filter id="filter0_i_4148_9902" x="124.32" y="261.927" width="19.9941" height="13.84" filterUnits="userSpaceOnUse" color-interpolation-filters="sRGB">
<feFlood flood-opacity="0" result="BackgroundImageFix"/>
<feBlend mode="normal" in="SourceGraphic" in2="BackgroundImageFix" result="shape"/>
<feColorMatrix in="SourceAlpha" type="matrix" values="0 0 0 0 0 0 0 0 0 0 0 0 0 0 0 0 0 0 127 0" result="hardAlpha"/>
<feOffset dy="3"/>
<feComposite in2="hardAlpha" operator="arithmetic" k2="-1" k3="1"/>
<feColorMatrix type="matrix" values="0 0 0 0 1 0 0 0 0 1 0 0 0 0 1 0 0 0 1 0"/>
<feBlend mode="normal" in2="shape" result="effect1_innerShadow_4148_9902"/>
</filter>
<filter id="filter1_i_4148_9902" x="149.357" y="263.657" width="111.801" height="20.7972" filterUnits="userSpaceOnUse" color-interpolation-filters="sRGB">
<feFlood flood-opacity="0" result="BackgroundImageFix"/>
<feBlend mode="normal" in="SourceGraphic" in2="BackgroundImageFix" result="shape"/>
<feColorMatrix in="SourceAlpha" type="matrix" values="0 0 0 0 0 0 0 0 0 0 0 0 0 0 0 0 0 0 127 0" result="hardAlpha"/>
<feOffset dy="6"/>
<feComposite in2="hardAlpha" operator="arithmetic" k2="-1" k3="1"/>
<feColorMatrix type="matrix" values="0 0 0 0 1 0 0 0 0 1 0 0 0 0 1 0 0 0 1 0"/>
<feBlend mode="normal" in2="shape" result="effect1_innerShadow_4148_9902"/>
</filter>
</defs>
</svg>
