<svg width="16" height="16" viewBox="0 0 16 16" fill="none" xmlns="http://www.w3.org/2000/svg">
<path d="M8 0C3.5888 0 0 3.58885 0 8.00005C0 12.4112 3.5888 16 8 16C12.4112 16 16 12.4112 16 8.00005C16 3.58885 12.4112 0 8 0ZM8 14.5455C4.39079 14.5455 1.45455 11.6092 1.45455 8.00005C1.45455 4.39088 4.39079 1.45455 8 1.45455C11.6092 1.45455 14.5455 4.39088 14.5455 8.00005C14.5455 11.6092 11.6092 14.5455 8 14.5455Z" fill="#333333"/>
<path d="M8.00075 3.39392C7.46616 3.39392 7.03125 3.82912 7.03125 4.36405C7.03125 4.8985 7.46616 5.33331 8.00075 5.33331C8.53535 5.33331 8.97026 4.8985 8.97026 4.36405C8.97026 3.82912 8.53535 3.39392 8.00075 3.39392Z" fill="#333333"/>
<path d="M8.00071 6.78784C7.59906 6.78784 7.27344 7.11347 7.27344 7.51511V11.8788C7.27344 12.2804 7.59906 12.606 8.00071 12.606C8.40236 12.606 8.72798 12.2804 8.72798 11.8788V7.51511C8.72798 7.11347 8.40236 6.78784 8.00071 6.78784Z" fill="#333333"/>
</svg>
