<svg width="96" height="96" viewBox="0 0 96 96" fill="none" xmlns="http://www.w3.org/2000/svg">
<g clip-path="url(#clip0)">
<path d="M95.882 70.2476C95.7903 70.1411 95.6553 70.078 95.5133 70.078H0.487272C0.34532 70.078 0.211254 70.1401 0.118591 70.2476C0.025928 70.354 -0.0154747 70.497 0.00522666 70.6379C0.0190276 70.7266 1.45235 79.5257 12.5769 79.5257H83.4237C94.5473 79.5257 95.9806 70.7266 95.9954 70.6379C96.0151 70.497 95.9737 70.354 95.882 70.2476ZM55.1467 76.4442H40.8529V73.1576H55.1467V76.4442Z" fill="#4F4F4F"/>
<path d="M10.3583 66.6574H85.6422C86.7305 66.6574 87.6137 65.7741 87.6137 64.6858V18.4469C87.6137 17.3586 86.7305 16.4753 85.6422 16.4753H10.3583C9.26998 16.4753 8.38672 17.3586 8.38672 18.4469V64.6858C8.38672 65.7741 9.26998 66.6574 10.3583 66.6574ZM15.2872 23.3758H80.7133V59.7569H15.2872V23.3758Z" fill="#4F4F4F"/>
</g>
<defs>
<clipPath id="clip0">
<rect width="96" height="96" fill="white"/>
</clipPath>
</defs>
</svg>
