<svg width="80" height="80" viewBox="0 0 80 80" fill="none" xmlns="http://www.w3.org/2000/svg">
<g clip-path="url(#clip0_800_4059)">
<path d="M79.9014 58.5396C79.825 58.4509 79.7125 58.3983 79.5942 58.3983H0.405816C0.287523 58.3983 0.175801 58.4501 0.0985818 58.5396C0.0213625 58.6283 -0.0131397 58.7474 0.00411141 58.8649C0.0156122 58.9389 1.21005 66.2714 10.4805 66.2714H69.5195C78.7891 66.2714 79.9836 58.9389 79.9959 58.8649C80.0123 58.7474 79.9778 58.6283 79.9014 58.5396ZM45.9553 63.7034H34.0438V60.9646H45.9553V63.7034Z" fill="white"/>
<path d="M8.63124 55.5478H71.3678C72.2747 55.5478 73.0108 54.8117 73.0108 53.9048V15.3724C73.0108 14.4655 72.2747 13.7294 71.3678 13.7294H8.63124C7.72433 13.7294 6.98828 14.4655 6.98828 15.3724V53.9048C6.98828 54.8117 7.72433 55.5478 8.63124 55.5478ZM12.7387 19.4798H67.2604V49.7974H12.7387V19.4798Z" fill="white"/>
</g>
<defs>
<clipPath id="clip0_800_4059">
<rect width="80" height="80" fill="white"/>
</clipPath>
</defs>
</svg>
