<svg width="57" height="24" viewBox="0 0 57 24" fill="none" xmlns="http://www.w3.org/2000/svg">
<path d="M4.592 13.832H9.968V17H0.488V0.151999H4.592V13.832ZM18.0215 17.192C16.7095 17.192 15.5255 16.912 14.4695 16.352C13.4295 15.792 12.6055 14.992 11.9975 13.952C11.4055 12.912 11.1095 11.696 11.1095 10.304C11.1095 8.928 11.4135 7.72 12.0215 6.68C12.6295 5.624 13.4615 4.816 14.5175 4.256C15.5735 3.696 16.7575 3.416 18.0695 3.416C19.3815 3.416 20.5655 3.696 21.6215 4.256C22.6775 4.816 23.5095 5.624 24.1175 6.68C24.7255 7.72 25.0295 8.928 25.0295 10.304C25.0295 11.68 24.7175 12.896 24.0935 13.952C23.4855 14.992 22.6455 15.792 21.5735 16.352C20.5175 16.912 19.3335 17.192 18.0215 17.192ZM18.0215 13.64C18.8055 13.64 19.4695 13.352 20.0135 12.776C20.5735 12.2 20.8535 11.376 20.8535 10.304C20.8535 9.232 20.5815 8.408 20.0375 7.832C19.5095 7.256 18.8535 6.968 18.0695 6.968C17.2695 6.968 16.6055 7.256 16.0775 7.832C15.5495 8.392 15.2855 9.216 15.2855 10.304C15.2855 11.376 15.5415 12.2 16.0535 12.776C16.5815 13.352 17.2375 13.64 18.0215 13.64ZM32.2948 3.416C33.2388 3.416 34.0628 3.608 34.7668 3.992C35.4868 4.376 36.0388 4.88 36.4228 5.504V3.608H40.5268V16.976C40.5268 18.208 40.2788 19.32 39.7828 20.312C39.3028 21.32 38.5588 22.12 37.5508 22.712C36.5588 23.304 35.3188 23.6 33.8308 23.6C31.8468 23.6 30.2388 23.128 29.0068 22.184C27.7748 21.256 27.0708 19.992 26.8948 18.392H30.9508C31.0788 18.904 31.3828 19.304 31.8628 19.592C32.3428 19.896 32.9348 20.048 33.6388 20.048C34.4868 20.048 35.1588 19.8 35.6548 19.304C36.1668 18.824 36.4228 18.048 36.4228 16.976V15.08C36.0228 15.704 35.4708 16.216 34.7668 16.616C34.0628 17 33.2388 17.192 32.2948 17.192C31.1908 17.192 30.1908 16.912 29.2948 16.352C28.3988 15.776 27.6868 14.968 27.1588 13.928C26.6468 12.872 26.3908 11.656 26.3908 10.28C26.3908 8.904 26.6468 7.696 27.1588 6.656C27.6868 5.616 28.3988 4.816 29.2948 4.256C30.1908 3.696 31.1908 3.416 32.2948 3.416ZM36.4228 10.304C36.4228 9.28 36.1348 8.472 35.5588 7.88C34.9988 7.288 34.3108 6.992 33.4948 6.992C32.6788 6.992 31.9828 7.288 31.4068 7.88C30.8468 8.456 30.5668 9.256 30.5668 10.28C30.5668 11.304 30.8468 12.12 31.4068 12.728C31.9828 13.32 32.6788 13.616 33.4948 13.616C34.3108 13.616 34.9988 13.32 35.5588 12.728C36.1348 12.136 36.4228 11.328 36.4228 10.304ZM49.5918 17.192C48.2798 17.192 47.0958 16.912 46.0398 16.352C44.9998 15.792 44.1758 14.992 43.5678 13.952C42.9758 12.912 42.6798 11.696 42.6798 10.304C42.6798 8.928 42.9838 7.72 43.5918 6.68C44.1998 5.624 45.0318 4.816 46.0878 4.256C47.1438 3.696 48.3278 3.416 49.6398 3.416C50.9518 3.416 52.1358 3.696 53.1918 4.256C54.2478 4.816 55.0798 5.624 55.6878 6.68C56.2958 7.72 56.5998 8.928 56.5998 10.304C56.5998 11.68 56.2878 12.896 55.6638 13.952C55.0558 14.992 54.2158 15.792 53.1438 16.352C52.0878 16.912 50.9038 17.192 49.5918 17.192ZM49.5918 13.64C50.3758 13.64 51.0398 13.352 51.5838 12.776C52.1438 12.2 52.4238 11.376 52.4238 10.304C52.4238 9.232 52.1518 8.408 51.6078 7.832C51.0798 7.256 50.4238 6.968 49.6398 6.968C48.8398 6.968 48.1758 7.256 47.6478 7.832C47.1198 8.392 46.8558 9.216 46.8558 10.304C46.8558 11.376 47.1118 12.2 47.6238 12.776C48.1518 13.352 48.8078 13.64 49.5918 13.64Z" fill="#004DB6"/>
</svg>
