<svg width="400" height="334" viewBox="0 0 400 334" fill="none" xmlns="http://www.w3.org/2000/svg">
<path d="M81 159.542L215.003 79.3184C222.394 74.8939 231.619 74.8939 239.007 79.3184L373.011 159.542V290.295L81.0024 275.655V159.542H81Z" fill="#ED7D2B"/>
<path d="M347.875 101.61H106.136V310.52H347.875V101.61Z" fill="#FCECDB"/>
<path d="M116.96 113.02C118.228 112.494 118.83 111.041 118.305 109.773C117.78 108.505 116.326 107.903 115.058 108.428C113.79 108.954 113.188 110.407 113.714 111.675C114.239 112.943 115.692 113.545 116.96 113.02Z" fill="#EFCBAB"/>
<path d="M335.378 110.724C335.378 109.353 336.491 108.24 337.863 108.24C339.234 108.24 340.347 109.353 340.347 110.724C340.347 112.096 339.234 113.209 337.863 113.209C336.491 113.209 335.378 112.096 335.378 110.724Z" fill="#EFCBAB"/>
<path d="M337.862 110.454H116V110.994H337.862V110.454Z" fill="#EFCBAB"/>
<path d="M116.268 109.736H115.728V331.598H116.268V109.736Z" fill="#EFCBAB"/>
<path d="M338.219 109.736H337.679V331.598H338.219V109.736Z" fill="#EFCBAB"/>
<path d="M373.011 159.183V334H81V159.183L227.004 246.592L373.011 159.183Z" fill="#FF9843"/>
<path d="M81 334L214.747 238.112C222.075 232.859 231.933 232.859 239.261 238.112L373.008 334H81Z" fill="#ED7D2B"/>
<path d="M271.578 130.553H183.44C182.16 130.553 181.112 129.505 181.112 128.225C181.112 126.945 182.16 125.898 183.44 125.898H271.578C272.857 125.898 273.905 126.945 273.905 128.225C273.905 129.505 272.857 130.553 271.578 130.553Z" fill="#EFCBAB"/>
<path d="M294.28 139.888H160.735C159.455 139.888 158.407 138.84 158.407 137.56C158.407 136.28 159.455 135.233 160.735 135.233H294.28C295.56 135.233 296.607 136.28 296.607 137.56C296.607 138.84 295.56 139.888 294.28 139.888Z" fill="#EFCBAB"/>
<path d="M276.964 168.847H180.341C179.416 168.847 178.657 168.088 178.657 167.163C178.657 166.237 179.416 165.479 180.341 165.479H276.964C277.889 165.479 278.648 166.237 278.648 167.163C278.648 168.088 277.889 168.847 276.964 168.847Z" fill="#EFCBAB"/>
<path d="M190.042 177.639H162.797C161.872 177.639 161.113 176.881 161.113 175.955C161.113 175.03 161.872 174.271 162.797 174.271H190.042C190.967 174.271 191.726 175.03 191.726 175.955C191.726 176.881 190.967 177.639 190.042 177.639Z" fill="#EFCBAB"/>
<path d="M231.13 177.639H198.214C197.289 177.639 196.53 176.881 196.53 175.955C196.53 175.03 197.289 174.271 198.214 174.271H231.128C232.053 174.271 232.812 175.03 232.812 175.955C232.814 176.881 232.055 177.639 231.13 177.639Z" fill="#EFCBAB"/>
<path d="M294.504 177.639H237.603C236.678 177.639 235.919 176.881 235.919 175.955C235.919 175.03 236.678 174.271 237.603 174.271H294.504C295.429 174.271 296.188 175.03 296.188 175.955C296.188 176.881 295.429 177.639 294.504 177.639Z" fill="#EFCBAB"/>
<path d="M231.346 187.862H178.421C177.496 187.862 176.737 187.103 176.737 186.178C176.737 185.253 177.496 184.494 178.421 184.494H231.346C232.271 184.494 233.03 185.253 233.03 186.178C233.03 187.106 232.271 187.862 231.346 187.862Z" fill="#EFCBAB"/>
<path d="M278.879 187.862H237.194C236.268 187.862 235.51 187.103 235.51 186.178C235.51 185.253 236.268 184.494 237.194 184.494H278.879C279.804 184.494 280.563 185.253 280.563 186.178C280.563 187.106 279.804 187.862 278.879 187.862Z" fill="#EFCBAB"/>
<g opacity="0.5">
<path opacity="0.5" d="M131.142 15L144.748 45.0183L94.6054 67.7465L81 37.7282L112.874 41.3732L131.142 15Z" fill="#CDE0FB"/>
<path opacity="0.5" d="M81 37.7282L131.142 15L116.151 40.2665C114.968 42.2591 112.676 43.3125 110.394 42.9089L81 37.7282Z" fill="#B1CFF2"/>
</g>
<g opacity="0.5">
<path opacity="0.5" d="M32.0591 198L39.2172 217.195L7.15555 229.15L0 209.956L19.6086 213.575L32.0591 198Z" fill="#CDE0FB"/>
<path opacity="0.5" d="M0 209.956L32.0616 198L21.69 213.029C20.8727 214.215 19.4055 214.768 18.0069 214.423L0 209.956Z" fill="#B1CFF2"/>
</g>
<g opacity="0.5">
<path opacity="0.5" d="M399.013 81.7987L388.953 119.488L326 102.689L336.057 65L362.506 92.2439L399.013 81.7987Z" fill="#CDE0FB"/>
<path opacity="0.5" d="M336.058 65L399.011 81.7987L366.335 93.6882C363.758 94.6248 360.87 93.8709 359.083 91.7895L336.058 65Z" fill="#B1CFF2"/>
</g>
<path d="M55.6055 324.75C54.0825 324.745 52.6077 324.725 51.2167 324.687C51.0542 324.682 50.9273 324.547 50.9324 324.387C50.9375 324.225 51.0669 324.1 51.2319 324.103C52.6178 324.141 54.0901 324.161 55.6055 324.166C55.7679 324.166 55.8974 324.298 55.8974 324.458C55.8974 324.618 55.7654 324.75 55.6055 324.75ZM59.9917 324.717C59.8318 324.717 59.7023 324.59 59.6998 324.43C59.6973 324.27 59.8267 324.136 59.9866 324.133C61.3903 324.111 62.8651 324.073 64.3678 324.024C64.5353 324.012 64.6648 324.146 64.6698 324.306C64.6749 324.468 64.548 324.603 64.3881 324.608C62.8803 324.659 61.403 324.694 59.9968 324.72C59.9968 324.717 59.9942 324.717 59.9917 324.717ZM46.8482 324.496C46.8432 324.496 46.8355 324.496 46.8305 324.496C45.2846 324.402 43.8124 324.283 42.4518 324.139C42.2919 324.121 42.1752 323.979 42.1929 323.816C42.2107 323.656 42.3554 323.539 42.5153 323.557C43.8682 323.702 45.3328 323.821 46.8685 323.915C47.0285 323.925 47.1528 324.062 47.1427 324.225C47.13 324.377 47.0005 324.496 46.8482 324.496ZM68.7642 324.43C68.6093 324.43 68.4799 324.309 68.4723 324.151C68.4646 323.991 68.589 323.854 68.7515 323.847C70.1577 323.781 71.6299 323.704 73.1301 323.618C73.29 323.613 73.4296 323.732 73.4398 323.892C73.4499 324.052 73.3255 324.192 73.1656 324.199C71.6655 324.286 70.1882 324.362 68.7819 324.428C68.7718 324.43 68.7667 324.43 68.7642 324.43ZM77.5239 323.928C77.3716 323.928 77.2422 323.811 77.232 323.656C77.2219 323.496 77.3437 323.357 77.5036 323.344C78.9429 323.248 80.3999 323.141 81.8772 323.029C82.0371 323.017 82.1792 323.138 82.1894 323.298C82.2021 323.458 82.0802 323.6 81.9203 323.611C80.443 323.722 78.9835 323.829 77.5417 323.925C77.5366 323.928 77.529 323.928 77.5239 323.928ZM38.1443 323.532C38.1265 323.532 38.1088 323.532 38.0935 323.527C36.4817 323.237 35.0374 322.892 33.7987 322.499C33.6438 322.451 33.5601 322.286 33.6083 322.131C33.6565 321.976 33.8215 321.892 33.9764 321.94C35.1897 322.326 36.6111 322.666 38.1976 322.951C38.3575 322.978 38.4616 323.131 38.4337 323.291C38.4058 323.433 38.2814 323.532 38.1443 323.532ZM86.271 323.263C86.1212 323.263 85.9918 323.149 85.9791 322.996C85.9664 322.836 86.0857 322.694 86.2456 322.681C87.6874 322.56 89.1444 322.433 90.6141 322.298C90.7766 322.283 90.9162 322.402 90.9314 322.562C90.9466 322.722 90.8273 322.864 90.6674 322.879C89.1952 323.014 87.7382 323.141 86.2964 323.263C86.2888 323.263 86.2786 323.263 86.271 323.263ZM95.0079 322.468C94.8582 322.468 94.7313 322.354 94.7186 322.204C94.7033 322.044 94.8201 321.9 94.98 321.884C96.4243 321.745 97.8788 321.598 99.3434 321.448C99.5033 321.435 99.648 321.547 99.6632 321.709C99.6785 321.869 99.5642 322.014 99.4018 322.029C97.9372 322.179 96.4802 322.326 95.0359 322.466C95.0257 322.468 95.0181 322.468 95.0079 322.468ZM103.735 321.575C103.588 321.575 103.461 321.463 103.445 321.313C103.428 321.153 103.544 321.009 103.704 320.991C105.149 320.836 106.603 320.674 108.063 320.509C108.222 320.491 108.367 320.605 108.385 320.765C108.403 320.925 108.288 321.07 108.129 321.087C106.666 321.252 105.215 321.412 103.768 321.57C103.755 321.572 103.745 321.575 103.735 321.575ZM29.9379 320.658C29.8795 320.658 29.8186 320.641 29.7653 320.603C28.92 319.986 28.3083 319.288 27.9504 318.529C27.6889 317.975 27.4706 317.42 27.3006 316.876C27.2523 316.721 27.3386 316.559 27.4935 316.511C27.6458 316.463 27.8108 316.549 27.859 316.704C28.0189 317.219 28.2271 317.75 28.4783 318.28C28.7956 318.95 29.3439 319.572 30.1105 320.13C30.2399 320.224 30.2704 320.407 30.1739 320.539C30.1181 320.618 30.0293 320.658 29.9379 320.658ZM112.451 320.592C112.304 320.592 112.18 320.483 112.162 320.334C112.144 320.174 112.258 320.029 112.418 320.009C113.865 319.839 115.315 319.666 116.772 319.491C116.931 319.473 117.076 319.585 117.096 319.745C117.117 319.905 117.003 320.052 116.843 320.07C115.386 320.247 113.934 320.42 112.487 320.587C112.474 320.59 112.461 320.592 112.451 320.592ZM121.158 319.534C121.013 319.534 120.886 319.425 120.868 319.278C120.848 319.118 120.962 318.97 121.122 318.953C122.564 318.772 124.011 318.59 125.458 318.402C125.618 318.384 125.765 318.496 125.785 318.656C125.805 318.816 125.694 318.963 125.534 318.983C124.085 319.168 122.64 319.354 121.196 319.534C121.183 319.534 121.17 319.534 121.158 319.534ZM129.836 318.42C129.692 318.42 129.567 318.313 129.547 318.166C129.527 318.006 129.638 317.859 129.798 317.838C131.248 317.648 132.697 317.453 134.146 317.257C134.309 317.237 134.454 317.348 134.474 317.508C134.497 317.668 134.382 317.816 134.223 317.836C132.773 318.031 131.321 318.227 129.872 318.417C129.862 318.417 129.849 318.42 129.836 318.42ZM138.54 317.242C138.396 317.242 138.271 317.135 138.251 316.991C138.228 316.831 138.34 316.683 138.5 316.661C139.949 316.46 141.396 316.257 142.843 316.054C143 316.031 143.15 316.143 143.173 316.303C143.196 316.463 143.084 316.61 142.924 316.633C141.477 316.836 140.028 317.039 138.581 317.239C138.568 317.239 138.556 317.242 138.54 317.242ZM147.226 316.013C147.084 316.013 146.96 315.909 146.937 315.762C146.914 315.602 147.026 315.455 147.186 315.432C148.635 315.224 150.082 315.013 151.526 314.803C151.686 314.777 151.834 314.889 151.859 315.049C151.882 315.209 151.773 315.356 151.613 315.379C150.168 315.589 148.722 315.8 147.272 316.008C147.254 316.013 147.239 316.013 147.226 316.013ZM155.905 314.744C155.763 314.744 155.638 314.64 155.616 314.495C155.593 314.335 155.702 314.188 155.862 314.163C157.314 313.947 158.758 313.729 160.197 313.511C160.357 313.485 160.504 313.597 160.53 313.757C160.555 313.917 160.444 314.064 160.286 314.089C158.847 314.308 157.4 314.526 155.948 314.742C155.933 314.742 155.92 314.744 155.905 314.744ZM164.578 313.429C164.436 313.429 164.312 313.325 164.289 313.181C164.264 313.021 164.373 312.871 164.533 312.848C165.985 312.625 167.432 312.401 168.866 312.178C169.026 312.155 169.175 312.262 169.198 312.422C169.224 312.582 169.114 312.731 168.955 312.754C167.518 312.977 166.074 313.201 164.619 313.424C164.609 313.429 164.594 313.429 164.578 313.429ZM27.2929 312.764C27.2726 312.764 27.2549 312.762 27.2346 312.759C27.0772 312.726 26.9731 312.574 27.0061 312.417C27.2879 311.023 27.9453 309.68 28.9632 308.429C29.0647 308.302 29.2475 308.284 29.3744 308.386C29.4988 308.487 29.5191 308.67 29.4175 308.797C28.4606 309.977 27.8412 311.234 27.5798 312.533C27.5519 312.67 27.43 312.764 27.2929 312.764ZM173.247 312.079C173.105 312.079 172.98 311.977 172.957 311.833C172.932 311.673 173.041 311.523 173.201 311.498C174.656 311.267 176.1 311.038 177.532 310.807C177.689 310.782 177.841 310.891 177.867 311.048C177.892 311.208 177.783 311.358 177.625 311.383C176.194 311.612 174.747 311.843 173.293 312.074C173.275 312.079 173.26 312.079 173.247 312.079ZM181.908 310.69C181.768 310.69 181.644 310.589 181.621 310.444C181.595 310.284 181.702 310.135 181.862 310.109C183.319 309.873 184.763 309.637 186.19 309.404C186.35 309.378 186.499 309.485 186.525 309.645C186.55 309.805 186.444 309.954 186.284 309.98C184.855 310.213 183.413 310.449 181.953 310.685C181.938 310.69 181.923 310.69 181.908 310.69ZM190.566 309.272C190.426 309.272 190.302 309.17 190.279 309.028C190.254 308.868 190.36 308.718 190.52 308.693C191.982 308.449 193.424 308.208 194.848 307.969C195.01 307.941 195.158 308.051 195.186 308.211C195.211 308.37 195.104 308.52 194.947 308.546C193.523 308.784 192.081 309.025 190.619 309.269C190.596 309.269 190.581 309.272 190.566 309.272ZM199.219 307.817C199.079 307.817 198.955 307.716 198.932 307.573C198.904 307.413 199.013 307.264 199.171 307.236C200.638 306.987 202.08 306.741 203.496 306.497C203.654 306.469 203.806 306.576 203.834 306.736C203.862 306.893 203.755 307.045 203.595 307.073C202.179 307.317 200.737 307.563 199.27 307.812C199.252 307.817 199.234 307.817 199.219 307.817ZM207.867 306.335C207.728 306.335 207.606 306.236 207.58 306.094C207.552 305.934 207.659 305.784 207.819 305.756C209.294 305.5 210.738 305.248 212.142 305.002C212.302 304.974 212.451 305.081 212.479 305.238C212.507 305.398 212.401 305.548 212.243 305.576C210.837 305.822 209.395 306.073 207.918 306.33C207.903 306.332 207.885 306.335 207.867 306.335ZM32.4254 305.982C32.3341 305.982 32.2427 305.939 32.1868 305.857C32.0955 305.725 32.1259 305.543 32.2605 305.451C33.3646 304.682 34.6516 303.936 36.0908 303.235C36.2355 303.164 36.4106 303.225 36.4817 303.37C36.5528 303.515 36.4919 303.69 36.3472 303.761C34.9359 304.449 33.6743 305.18 32.5955 305.931C32.5422 305.964 32.4838 305.982 32.4254 305.982ZM216.515 304.819C216.376 304.819 216.254 304.72 216.228 304.578C216.2 304.418 216.307 304.268 216.464 304.241C217.957 303.977 219.399 303.72 220.787 303.471C220.945 303.441 221.097 303.548 221.125 303.707C221.153 303.867 221.049 304.017 220.889 304.045C219.5 304.294 218.059 304.55 216.566 304.814C216.548 304.817 216.533 304.819 216.515 304.819ZM225.161 303.273C225.021 303.273 224.899 303.174 224.874 303.032C224.846 302.875 224.95 302.723 225.11 302.692C226.636 302.415 228.077 302.154 229.433 301.908C229.593 301.877 229.742 301.984 229.773 302.141C229.801 302.299 229.697 302.451 229.537 302.481C228.181 302.73 226.74 302.992 225.214 303.268C225.194 303.271 225.176 303.273 225.161 303.273ZM40.2537 302.07C40.1343 302.07 40.0227 301.997 39.9795 301.88C39.9237 301.728 39.9998 301.56 40.1521 301.504C41.4467 301.022 42.8529 300.552 44.3353 300.111C44.4901 300.065 44.6526 300.151 44.6983 300.306C44.744 300.461 44.6577 300.623 44.5028 300.669C43.0331 301.108 41.6396 301.573 40.3577 302.05C40.3222 302.065 40.2866 302.07 40.2537 302.07ZM233.806 301.692C233.669 301.692 233.545 301.593 233.519 301.453C233.489 301.296 233.596 301.144 233.753 301.113C235.4 300.809 236.85 300.54 238.078 300.309C238.236 300.278 238.391 300.382 238.418 300.542C238.449 300.7 238.345 300.854 238.185 300.882C236.954 301.113 235.504 301.382 233.857 301.687C233.842 301.692 233.824 301.692 233.806 301.692ZM242.467 300.068C242.33 300.068 242.208 299.971 242.18 299.831C242.15 299.674 242.254 299.519 242.411 299.489C242.708 299.433 242.876 299.4 242.911 299.392C243.084 299.352 243.269 299.494 243.269 299.677C243.269 299.918 243.241 299.923 242.52 300.062C242.503 300.068 242.485 300.068 242.467 300.068ZM48.6555 299.537C48.5235 299.537 48.4042 299.448 48.3712 299.314C48.3332 299.156 48.4296 298.999 48.5844 298.961C49.9501 298.626 51.3944 298.301 52.8818 297.996C53.0392 297.963 53.1941 298.065 53.2271 298.225C53.2601 298.382 53.1585 298.537 52.9986 298.57C51.5188 298.872 50.0821 299.194 48.7241 299.529C48.7037 299.534 48.6784 299.537 48.6555 299.537ZM57.2605 297.763C57.1208 297.763 56.9965 297.661 56.9736 297.519C56.9457 297.359 57.0523 297.209 57.2122 297.181C58.6134 296.94 60.0755 296.709 61.5578 296.494C61.7203 296.468 61.865 296.58 61.8878 296.74C61.9107 296.9 61.799 297.047 61.6416 297.07C60.1643 297.283 58.7073 297.514 57.3112 297.755C57.2935 297.763 57.2757 297.763 57.2605 297.763ZM65.9542 296.499C65.8095 296.499 65.6826 296.39 65.6649 296.242C65.6446 296.082 65.7588 295.938 65.9187 295.917C67.3579 295.745 68.8302 295.582 70.2922 295.438C70.4521 295.425 70.5968 295.539 70.6121 295.699C70.6273 295.859 70.5105 296.004 70.3506 296.019C68.8911 296.164 67.4239 296.324 65.9898 296.499C65.9771 296.499 65.9644 296.499 65.9542 296.499ZM74.6988 295.636C74.5465 295.636 74.4196 295.519 74.4069 295.367C74.3942 295.207 74.516 295.064 74.6759 295.052C77.3894 294.844 79.0774 294.77 79.0952 294.77C79.2576 294.757 79.3922 294.889 79.3998 295.049C79.4074 295.209 79.2805 295.346 79.1205 295.354C79.1053 295.354 77.4249 295.425 74.7216 295.633C74.714 295.636 74.7064 295.636 74.6988 295.636Z" fill="#F2994A"/>
<path d="M252.23 315.452L288.21 295.062L255.387 297.001L257.92 302.545L251.141 310.056L252.23 315.452Z" fill="#AFCDFB"/>
<path d="M288.21 295.062L250.506 301.971L223.044 321.044L288.21 295.062Z" fill="white"/>
<path d="M255.387 297.001L288.21 295.062L253.877 285L255.387 297.001Z" fill="white"/>
<path d="M231.312 22.7942L272.159 29.2593L245.278 10.3285L243.806 16.2428L233.823 17.8927L231.312 22.7942Z" fill="#AFCDFB"/>
<path d="M272.159 29.2593L238.364 11.1737L205 8.98569L272.159 29.2593Z" fill="white"/>
<path d="M245.278 10.3285L272.159 29.2593L251.573 0L245.278 10.3285Z" fill="white"/>
</svg>
