<svg width="600" height="400" viewBox="0 0 600 400" fill="none" xmlns="http://www.w3.org/2000/svg">
<path fill-rule="evenodd" clip-rule="evenodd" d="M224.963 294.965C222.227 288.514 215.946 284.003 208.635 284.003C206.62 284.003 204.684 284.345 202.879 284.977C199.452 279.671 193.568 276.17 186.885 276.17C180.492 276.17 174.831 279.372 171.352 284.294C169.96 283.468 168.343 282.996 166.619 282.996C165.109 282.996 163.682 283.358 162.417 284.002C158.998 275.087 150.511 268.775 140.581 268.775C131.464 268.775 123.562 274.097 119.685 281.868C117.392 280.767 114.832 280.152 112.132 280.152C103.438 280.152 96.2007 286.531 94.6484 294.965H224.963Z" fill="#DEE2E6"/>
<path d="M83 296.5H533" stroke="#DEE2E6" stroke-width="3" stroke-linecap="round"/>
<path d="M67 296.5H73" stroke="#DEE2E6" stroke-width="3" stroke-linecap="round"/>
<path d="M476 310.5H488" stroke="#DEE2E6" stroke-width="3" stroke-linecap="round" stroke-linejoin="round"/>
<path d="M265 310.5H466" stroke="#DEE2E6" stroke-width="3" stroke-linecap="round" stroke-linejoin="round"/>
<path d="M112 296L186.5 235L244 280.123" stroke="#DEE2E6" stroke-width="3" stroke-linecap="round" stroke-linejoin="round"/>
<path d="M227 265.943L244.5 251L300 296" stroke="#DEE2E6" stroke-width="3" stroke-linecap="round" stroke-linejoin="round"/>
<path fill-rule="evenodd" clip-rule="evenodd" d="M278.962 262.439L284.999 284L273.77 274.106L277.036 262.439C277.185 261.907 277.737 261.597 278.269 261.746C278.605 261.84 278.868 262.103 278.962 262.439Z" fill="#DEE2E6"/>
<path fill-rule="evenodd" clip-rule="evenodd" d="M146.966 259.358L148.713 265.907L142 270.735L145.034 259.358C145.176 258.825 145.724 258.507 146.258 258.65C146.604 258.742 146.874 259.012 146.966 259.358Z" fill="#DEE2E6"/>
<path fill-rule="evenodd" clip-rule="evenodd" d="M429.421 233.954L443.76 283.443C444.067 284.504 443.456 285.613 442.395 285.921C442.214 285.973 442.027 286 441.839 286H413.162C412.058 286 411.162 285.104 411.162 284C411.162 283.811 411.189 283.624 411.241 283.443L425.579 233.954C425.887 232.893 426.996 232.282 428.057 232.59C428.716 232.78 429.231 233.295 429.421 233.954Z" fill="white"/>
<path fill-rule="evenodd" clip-rule="evenodd" d="M427.5 232.324L444.5 286H410.5L427.5 232.324Z" stroke="#DEE2E6" stroke-width="3" stroke-linecap="round" stroke-linejoin="round"/>
<path fill-rule="evenodd" clip-rule="evenodd" d="M427.5 236.695C427.5 275.045 427.5 294.647 427.5 295.5C427.5 294.647 427.5 275.045 427.5 236.695Z" stroke="#DEE2E6" stroke-width="3" stroke-linecap="round"/>
<path fill-rule="evenodd" clip-rule="evenodd" d="M435.5 261.324C430.167 267.785 427.5 271.118 427.5 271.324C427.5 271.118 430.167 267.785 435.5 261.324Z" stroke="#DEE2E6" stroke-width="3" stroke-linecap="round" stroke-linejoin="round"/>
<path fill-rule="evenodd" clip-rule="evenodd" d="M391.647 199L416.878 283.427C417.194 284.486 416.593 285.6 415.535 285.916C415.349 285.972 415.156 286 414.962 286H368.332C367.227 286 366.332 285.105 366.332 284C366.332 283.806 366.36 283.613 366.416 283.427L391.647 199Z" fill="white"/>
<path fill-rule="evenodd" clip-rule="evenodd" d="M391.5 199L417.5 286H365.5L391.5 199Z" stroke="#DEE2E6" stroke-width="3" stroke-linecap="round" stroke-linejoin="round"/>
<path fill-rule="evenodd" clip-rule="evenodd" d="M391.5 201.586C391.5 263.359 391.5 294.997 391.5 296.5C391.5 294.997 391.5 263.359 391.5 201.586Z" stroke="#DEE2E6" stroke-width="3" stroke-linecap="round"/>
<path fill-rule="evenodd" clip-rule="evenodd" d="M380.648 241C387.315 248.079 390.648 251.745 390.648 252C390.648 251.745 387.315 248.079 380.648 241Z" stroke="#DEE2E6" stroke-width="3" stroke-linecap="round" stroke-linejoin="round"/>
<path fill-rule="evenodd" clip-rule="evenodd" d="M392.648 267C401.982 256.079 406.648 250.745 406.648 251C406.648 250.745 401.982 256.079 392.648 267Z" stroke="#DEE2E6" stroke-width="3" stroke-linecap="round" stroke-linejoin="round"/>
<path fill-rule="evenodd" clip-rule="evenodd" d="M367 68L349 130L425 168L431 86L367 68Z" fill="white"/>
<path fill-rule="evenodd" clip-rule="evenodd" d="M369.001 72L351.964 124.753C350.571 126.877 349.791 128.229 349.623 128.807C349.455 129.386 350.503 130.414 352.768 131.894L424.627 167.125L427.569 88.8794L425.964 88.0207L369.001 72Z" fill="#DEE2E6"/>
<path fill-rule="evenodd" clip-rule="evenodd" d="M367 68L349 130L425 168L431 86L367 68Z" stroke="#CED4DA" stroke-width="3" stroke-linecap="round" stroke-linejoin="round"/>
<path d="M367 68L423 165" stroke="#CED4DA" stroke-width="3" stroke-linecap="round" stroke-linejoin="round"/>
<path d="M349 130C363.338 114.776 375.005 104.776 384 100C392.995 95.2245 408.662 90.8912 431 87" stroke="#CED4DA" stroke-width="3" stroke-linecap="round" stroke-linejoin="round"/>
<path d="M386.434 134.129C372.73 172.138 348.317 198.615 313.193 213.561" stroke="#CED4DA" stroke-width="3" stroke-linecap="round" stroke-linejoin="round"/>
<path d="M425.011 167.1C431.347 183.347 440.878 188.309 453.605 181.988C464.234 176.438 473.707 156.061 490.189 164.551C502.136 171.63 496.998 185.918 490.457 203.085C483.442 225.263 495.621 231.727 511.269 228.297" stroke="#CED4DA" stroke-width="3" stroke-linecap="round" stroke-linejoin="round"/>
<path d="M304 225C308.971 225 313 220.971 313 216C313 211.029 308.971 207 304 207C299.029 207 295 211.029 295 216C295 220.971 299.029 225 304 225Z" stroke="#CED4DA" stroke-width="3"/>
<path d="M325.635 241.671L331.988 236.45" stroke="#CED4DA" stroke-width="3" stroke-linecap="round" stroke-linejoin="round"/>
<path d="M309.943 223.463L331.87 249.594L340.852 242.056" stroke="#CED4DA" stroke-width="3" stroke-linecap="round" stroke-linejoin="round"/>
<path d="M311.001 214C271.667 224.667 241.001 238.667 219.001 256C197.001 273.333 191.667 298.333 203.001 331" stroke="#CED4DA" stroke-width="3" stroke-linecap="round"/>
<path d="M385 99L386 135L413 149" stroke="#CED4DA" stroke-width="3" stroke-linecap="round" stroke-linejoin="round"/>
<path fill-rule="evenodd" clip-rule="evenodd" d="M281 191C281 194.312 278.313 197 275 197C271.688 197 269 194.312 269 191C269 187.688 271.688 185 275 185C278.313 185 281 187.688 281 191Z" stroke="#DEE2E6" stroke-width="3"/>
<path fill-rule="evenodd" clip-rule="evenodd" d="M289 196C286.788 196 285 197.792 285 200C285 202.208 286.788 204 289 204C291.21 204 293 202.208 293 200C293 197.792 291.21 196 289 196Z" fill="#DEE2E6"/>
<path fill-rule="evenodd" clip-rule="evenodd" d="M235.303 89C250.238 89 263.243 97.3861 270.096 109.782C274.851 106.344 280.647 104.301 286.914 104.301C303.009 104.301 316.049 117.621 316.049 134.052C316.049 150.484 303.009 163.804 286.914 163.804C286.566 163.804 286.222 163.761 285.87 163.748C280.61 171.482 271.861 176.556 261.94 176.556C254.902 176.556 248.444 174.005 243.409 169.76C240.79 170.312 238.078 170.606 235.303 170.606C213.231 170.606 196.683 152.682 196.683 130.149C196.683 107.614 213.231 89 235.303 89Z" stroke="#CED4DA" stroke-width="3" stroke-linecap="round" stroke-linejoin="round"/>
<path fill-rule="evenodd" clip-rule="evenodd" d="M242.09 189.99L251.055 159H238.938C238.385 159 237.938 158.552 237.938 158C237.938 157.923 237.946 157.847 237.964 157.772L246.86 119.772C246.966 119.32 247.37 119 247.834 119H273.264C273.816 119 274.264 119.448 274.264 120C274.264 120.198 274.205 120.391 274.095 120.556L257.744 145H273.243C273.796 145 274.243 145.448 274.243 146C274.243 146.201 274.183 146.397 274.069 146.563L243.877 190.831C243.566 191.288 242.944 191.405 242.488 191.094C242.131 190.85 241.97 190.405 242.09 189.99Z" fill="#CED4DA"/>
</svg>
