<svg width="72" height="72" viewBox="0 0 72 72" fill="none" xmlns="http://www.w3.org/2000/svg">
<path d="M52.0497 0H19.95C17.2757 0 15.0869 2.18674 15.0869 4.86309V67.1349C15.0869 69.8112 17.2757 72 19.95 72H52.0497C54.7239 72 56.9127 69.8153 56.9127 67.1369V4.86309C56.9127 2.18674 54.7239 0 52.0497 0ZM30.8652 3.50537H41.1345C41.4595 3.50537 41.7228 3.76869 41.7228 4.09577C41.7228 4.4208 41.4595 4.68411 41.1345 4.68411H30.8652C30.5402 4.68411 30.2769 4.4208 30.2769 4.09577C30.2769 3.76869 30.5402 3.50537 30.8652 3.50537ZM35.9998 69.5685C34.6565 69.5685 33.5683 68.4802 33.5683 67.1349C33.5683 65.7895 34.6565 64.7033 35.9998 64.7033C37.3431 64.7033 38.4314 65.7895 38.4314 67.1349C38.4314 68.4802 37.3431 69.5685 35.9998 69.5685ZM53.5287 63H18.4709V7.71223H53.5287V63Z" fill="white"/>
</svg>
