<svg width="72" height="72" viewBox="0 0 72 72" fill="none" xmlns="http://www.w3.org/2000/svg">
<path d="M52.0506 0H19.951C17.2767 0 15.0879 2.18674 15.0879 4.86309V67.1349C15.0879 69.8112 17.2767 72 19.951 72H52.0506C54.7249 72 56.9137 69.8153 56.9137 67.1369V4.86309C56.9137 2.18674 54.7249 0 52.0506 0ZM30.8662 3.50537H41.1354C41.4605 3.50537 41.7238 3.76869 41.7238 4.09577C41.7238 4.4208 41.4605 4.68411 41.1354 4.68411H30.8662C30.5411 4.68411 30.2778 4.4208 30.2778 4.09577C30.2778 3.76869 30.5411 3.50537 30.8662 3.50537ZM36.0008 69.5685C34.6575 69.5685 33.5693 68.4802 33.5693 67.1349C33.5693 65.7895 34.6575 64.7033 36.0008 64.7033C37.3441 64.7033 38.4323 65.7895 38.4323 67.1349C38.4323 68.4802 37.3441 69.5685 36.0008 69.5685ZM53.5297 63H18.4719V7.71223H53.5297V63Z" fill="#4F4F4F"/>
</svg>
