<svg width="82" height="82" viewBox="0 0 82 82" fill="none" xmlns="http://www.w3.org/2000/svg">
<path d="M41 82C63.4294 82 82 63.3892 82 41C82 18.5706 63.3892 0 40.9598 0C18.5706 0 0 18.5706 0 41C0 63.3892 18.6108 82 41 82ZM41 75.1667C22.0275 75.1667 6.87353 59.9725 6.87353 41C6.87353 22.0275 21.9873 6.83333 40.9598 6.83333C59.9324 6.83333 75.1265 22.0275 75.1667 41C75.2069 59.9725 59.9725 75.1667 41 75.1667ZM36.5784 60.0931C37.9049 60.0931 39.0304 59.45 39.8343 58.2039L58.2039 29.3029C58.6461 28.499 59.1686 27.6147 59.1686 26.7304C59.1686 24.9216 57.5608 23.7559 55.8726 23.7559C54.8676 23.7559 53.8627 24.399 53.099 25.5647L36.4176 52.3353L28.499 42.0853C27.5343 40.799 26.65 40.4775 25.5245 40.4775C23.7961 40.4775 22.4294 41.8843 22.4294 43.6529C22.4294 44.5373 22.7912 45.3814 23.3539 46.1451L33.1618 58.2039C34.1667 59.5304 35.252 60.0931 36.5784 60.0931Z" fill="#37B24D"/>
</svg>
