<svg width="72" height="72" viewBox="0 0 72 72" fill="none" xmlns="http://www.w3.org/2000/svg">
<path d="M57.451 0H14.5441C11.8394 0 9.66211 2.18792 9.66211 4.89051V67.1116C9.66211 69.8057 11.8394 72 14.5441 72H57.451C60.1472 72 62.3352 69.8078 62.3352 67.1116V4.89051C62.3394 2.18792 60.1494 0 57.451 0ZM35.9997 70.1679C34.3942 70.1679 33.0959 68.8696 33.0959 67.2662C33.0959 65.6608 34.3942 64.3603 35.9997 64.3603C37.6009 64.3603 38.9035 65.6608 38.9035 67.2662C38.9035 68.8696 37.6009 70.1679 35.9997 70.1679ZM57.3938 61.8166H14.6056V5.87539H57.3938V61.8166Z" fill="#4F4F4F"/>
</svg>
