<svg width="72" height="72" viewBox="0 0 72 72" fill="none" xmlns="http://www.w3.org/2000/svg">
<path d="M57.4515 0H14.5446C11.8399 0 9.6626 2.18792 9.6626 4.89051V67.1116C9.6626 69.8057 11.8399 72 14.5446 72H57.4515C60.1477 72 62.3356 69.8078 62.3356 67.1116V4.89051C62.3399 2.18792 60.1499 0 57.4515 0ZM36.0002 70.1679C34.3947 70.1679 33.0964 68.8696 33.0964 67.2662C33.0964 65.6608 34.3947 64.3603 36.0002 64.3603C37.6014 64.3603 38.904 65.6608 38.904 67.2662C38.904 68.8696 37.6014 70.1679 36.0002 70.1679ZM57.3943 61.8166H14.6061V5.87539H57.3943V61.8166Z" fill="white"/>
</svg>
