<svg width="72" height="72" viewBox="0 0 72 72" fill="none" xmlns="http://www.w3.org/2000/svg">
<path fill-rule="evenodd" clip-rule="evenodd" d="M49.1773 10.7846C49.1773 10.7846 54.181 12.7061 54.2621 12.7552C56.6792 13.7904 58.4182 15.4812 58.4182 18.0447V25.2434H60.4511V31.4354H58.4182V37.8997H60.4511V44.0917H58.4182V54.0143C58.4182 56.6603 56.13 58.7429 54.0326 59.3593L49.1776 61.2151L47.6783 70.6235C47.5518 71.4163 46.8681 71.9997 46.0651 71.9997H23.9006C23.0976 71.9997 22.4139 71.416 22.2874 70.6235L20.7881 61.2151L15.9603 59.3724C15.9553 59.3704 15.9505 59.368 15.9457 59.3655C15.9413 59.3633 15.9369 59.3611 15.9324 59.3593C13.6334 58.5341 11.5469 56.6603 11.5469 54.0143V18.0444C11.5469 15.4812 13.3215 13.5971 15.7026 12.7552C15.7844 12.7061 20.7881 10.7846 20.7881 10.7846L22.2874 1.37616C22.4139 0.583364 23.0976 0 23.9006 0H46.0651C46.8681 0 47.5518 0.583364 47.678 1.37616L49.1773 10.7846ZM49.9551 54.1965C51.7172 54.1965 53.1497 52.764 53.1497 51.0019H53.1494V21.0571C53.1494 19.295 51.7169 17.8625 49.9548 17.8625H20.0103C18.2482 17.8625 16.8157 19.295 16.8157 21.0571V51.0019C16.8157 52.764 18.2482 54.1965 20.0103 54.1965H49.9551Z" fill="#4F4F4F"/>
</svg>
