<svg width="72" height="72" viewBox="0 0 72 72" fill="none" xmlns="http://www.w3.org/2000/svg">
<path fill-rule="evenodd" clip-rule="evenodd" d="M49.1782 10.7846C49.1782 10.7846 54.1819 12.7061 54.2631 12.7552C56.6802 13.7904 58.4192 15.4812 58.4192 18.0447V25.2434H60.4521V31.4354H58.4192V37.8997H60.4521V44.0917H58.4192V54.0143C58.4192 56.6603 56.131 58.7429 54.0336 59.3593L49.1785 61.2151L47.6792 70.6235C47.5528 71.4163 46.8691 71.9997 46.0661 71.9997H23.9016C23.0986 71.9997 22.4148 71.416 22.2884 70.6235L20.7891 61.2151L15.9613 59.3724C15.9563 59.3704 15.9514 59.368 15.9466 59.3655C15.9422 59.3633 15.9379 59.3611 15.9334 59.3593C13.6344 58.5341 11.5479 56.6603 11.5479 54.0143V18.0444C11.5479 15.4812 13.3225 13.5971 15.7036 12.7552C15.7854 12.7061 20.7891 10.7846 20.7891 10.7846L22.2884 1.37616C22.4148 0.583364 23.0986 0 23.9016 0H46.0661C46.8691 0 47.5528 0.583364 47.6789 1.37616L49.1782 10.7846ZM49.9561 54.1965C51.7181 54.1965 53.1506 52.764 53.1506 51.0019H53.1503V21.0571C53.1503 19.295 51.7178 17.8625 49.9558 17.8625H20.0113C18.2492 17.8625 16.8167 19.295 16.8167 21.0571V51.0019C16.8167 52.764 18.2492 54.1965 20.0113 54.1965H49.9561Z" fill="white"/>
</svg>
